<?xml version="1.0" encoding="UTF-8" standalone="no"?>
<!DOCTYPE svg PUBLIC "-//W3C//DTD SVG 1.1//EN" "http://www.w3.org/Graphics/SVG/1.1/DTD/svg11.dtd">
<!-- Generated by graphviz version 2.43.0 (0)
 -->
<!-- Title: %3 Pages: 1 -->
<svg width="1940pt" height="1166pt" viewBox="0.00 0.00 1940.00 1165.50" xmlns="http://www.w3.org/2000/svg" xmlns:xlink="http://www.w3.org/1999/xlink">
<g id="graph0" class="graph" transform="scale(1 1) rotate(0) translate(4 1161.5)">
<title>%3</title>
<polygon fill="white" stroke="transparent" points="-4,4 -4,-1161.5 1936,-1161.5 1936,4 -4,4"/>
<!-- Fgraph -->
<g id="node1" class="node">
<title>Fgraph</title>
<path fill="none" stroke="blue" d="M1238,-466.1C1238,-467.91 1225.9,-469.38 1211,-469.38 1196.1,-469.38 1184,-467.91 1184,-466.1 1184,-466.1 1184,-436.65 1184,-436.65 1184,-434.84 1196.1,-433.38 1211,-433.38 1225.9,-433.38 1238,-434.84 1238,-436.65 1238,-436.65 1238,-466.1 1238,-466.1"/>
<path fill="none" stroke="blue" d="M1238,-466.1C1238,-464.3 1225.9,-462.83 1211,-462.83 1196.1,-462.83 1184,-464.3 1184,-466.1"/>
<text text-anchor="middle" x="1211" y="-447.68" font-family="Times,serif" font-size="14.00">graph</text>
</g>
<!-- Fcalc -->
<g id="node2" class="node">
<title>Fcalc</title>
<path fill="none" stroke="blue" d="M1169,-716.23C1169,-718.03 1156.9,-719.5 1142,-719.5 1127.1,-719.5 1115,-718.03 1115,-716.23 1115,-716.23 1115,-686.77 1115,-686.77 1115,-684.97 1127.1,-683.5 1142,-683.5 1156.9,-683.5 1169,-684.97 1169,-686.77 1169,-686.77 1169,-716.23 1169,-716.23"/>
<path fill="none" stroke="blue" d="M1169,-716.23C1169,-714.42 1156.9,-712.95 1142,-712.95 1127.1,-712.95 1115,-714.42 1115,-716.23"/>
<text text-anchor="middle" x="1142" y="-697.8" font-family="Times,serif" font-size="14.00">calc</text>
</g>
<!-- Frequest_time -->
<g id="node3" class="node">
<title>Frequest_time</title>
<path fill="none" stroke="blue" d="M247,-244.6C247,-247.24 234.45,-249.38 219,-249.38 203.55,-249.38 191,-247.24 191,-244.6 191,-244.6 191,-201.65 191,-201.65 191,-199.01 203.55,-196.87 219,-196.87 234.45,-196.87 247,-199.01 247,-201.65 247,-201.65 247,-244.6 247,-244.6"/>
<path fill="none" stroke="blue" d="M247,-244.6C247,-241.97 234.45,-239.83 219,-239.83 203.55,-239.83 191,-241.97 191,-244.6"/>
<text text-anchor="middle" x="219" y="-226.93" font-family="Times,serif" font-size="14.00">request</text>
<text text-anchor="middle" x="219" y="-211.93" font-family="Times,serif" font-size="14.00">time</text>
</g>
<!-- Fhome_buttons -->
<g id="node4" class="node">
<title>Fhome_buttons</title>
<path fill="none" stroke="blue" d="M560,-472.85C560,-475.49 547.45,-477.63 532,-477.63 516.55,-477.63 504,-475.49 504,-472.85 504,-472.85 504,-429.9 504,-429.9 504,-427.26 516.55,-425.12 532,-425.12 547.45,-425.12 560,-427.26 560,-429.9 560,-429.9 560,-472.85 560,-472.85"/>
<path fill="none" stroke="blue" d="M560,-472.85C560,-470.22 547.45,-468.08 532,-468.08 516.55,-468.08 504,-470.22 504,-472.85"/>
<text text-anchor="middle" x="532" y="-455.18" font-family="Times,serif" font-size="14.00">home</text>
<text text-anchor="middle" x="532" y="-440.18" font-family="Times,serif" font-size="14.00">buttons</text>
</g>
<!-- Hbuttons -->
<g id="node29" class="node">
<title>Hbuttons</title>
<polygon fill="none" stroke="black" points="78,-352.25 78,-373.25 409,-373.25 409,-352.25 78,-352.25"/>
<text text-anchor="start" x="223.5" y="-359.05" font-family="Times,serif" font-size="14.00">buttons</text>
<polygon fill="none" stroke="black" points="78,-301.25 78,-352.25 409,-352.25 409,-301.25 78,-301.25"/>
<text text-anchor="start" x="175" y="-338.05" font-family="Times,serif" font-size="14.00">Arguments: state.buttons</text>
<text text-anchor="start" x="147" y="-323.05" font-family="Times,serif" font-size="14.00">Called on home page initialization.</text>
<text text-anchor="start" x="81" y="-308.05" font-family="Times,serif" font-size="14.00">You append your buttons [command, label] to state.buttons</text>
<polygon fill="none" stroke="black" points="76.5,-300.25 76.5,-374.25 409.5,-374.25 409.5,-300.25 76.5,-300.25"/>
</g>
<!-- Fhome_buttons&#45;&gt;Hbuttons -->
<g id="edge14" class="edge">
<title>Fhome_buttons-&gt;Hbuttons</title>
<path fill="none" stroke="blue" stroke-width="3" d="M503.77,-430.12C500.87,-428.37 497.92,-426.71 495,-425.25 458.28,-406.85 416.74,-390.76 378.14,-377.58"/>
<polygon fill="blue" stroke="blue" stroke-width="3" points="378.99,-374.17 368.39,-374.29 376.75,-380.8 378.99,-374.17"/>
<text text-anchor="middle" x="460" y="-396.05" font-family="Helvetica,sans-Serif" font-size="14.00">4</text>
</g>
<!-- Fhome_click -->
<g id="node5" class="node">
<title>Fhome_click</title>
<path fill="none" stroke="blue" d="M792,-472.85C792,-475.49 779.9,-477.63 765,-477.63 750.1,-477.63 738,-475.49 738,-472.85 738,-472.85 738,-429.9 738,-429.9 738,-427.26 750.1,-425.12 765,-425.12 779.9,-425.12 792,-427.26 792,-429.9 792,-429.9 792,-472.85 792,-472.85"/>
<path fill="none" stroke="blue" d="M792,-472.85C792,-470.22 779.9,-468.08 765,-468.08 750.1,-468.08 738,-470.22 738,-472.85"/>
<text text-anchor="middle" x="765" y="-455.18" font-family="Times,serif" font-size="14.00">home</text>
<text text-anchor="middle" x="765" y="-440.18" font-family="Times,serif" font-size="14.00">click</text>
</g>
<!-- Fprofiler -->
<g id="node6" class="node">
<title>Fprofiler</title>
<path fill="none" stroke="blue" d="M340.5,-913.23C340.5,-915.03 327.73,-916.5 312,-916.5 296.27,-916.5 283.5,-915.03 283.5,-913.23 283.5,-913.23 283.5,-883.77 283.5,-883.77 283.5,-881.97 296.27,-880.5 312,-880.5 327.73,-880.5 340.5,-881.97 340.5,-883.77 340.5,-883.77 340.5,-913.23 340.5,-913.23"/>
<path fill="none" stroke="blue" d="M340.5,-913.23C340.5,-911.42 327.73,-909.95 312,-909.95 296.27,-909.95 283.5,-911.42 283.5,-913.23"/>
<text text-anchor="middle" x="312" y="-894.8" font-family="Times,serif" font-size="14.00">profiler</text>
</g>
<!-- Hprint -->
<g id="node26" class="node">
<title>Hprint</title>
<polygon fill="none" stroke="black" points="467,-337.25 467,-358.25 735,-358.25 735,-337.25 467,-337.25"/>
<text text-anchor="start" x="588" y="-344.05" font-family="Times,serif" font-size="14.00">print</text>
<polygon fill="none" stroke="black" points="467,-316.25 467,-337.25 735,-337.25 735,-316.25 467,-316.25"/>
<text text-anchor="start" x="470" y="-323.05" font-family="Times,serif" font-size="14.00">Arguments: state.string [state.file] [state.server]</text>
<polygon fill="none" stroke="black" points="466,-315.25 466,-359.25 736,-359.25 736,-315.25 466,-315.25"/>
</g>
<!-- Fprofiler&#45;&gt;Hprint -->
<g id="edge20" class="edge">
<title>Fprofiler-&gt;Hprint</title>
<path fill="none" stroke="blue" stroke-width="3" d="M307.37,-880.21C302.65,-861.01 296,-829.02 296,-801 296,-801 296,-801 296,-450.38 296,-426.34 366.15,-395.83 375,-392.25 407.57,-379.05 417.81,-382.38 452,-374.25 468.88,-370.24 486.83,-365.93 504.21,-361.75"/>
<polygon fill="blue" stroke="blue" stroke-width="3" points="505.46,-365.05 514.36,-359.3 503.82,-358.24 505.46,-365.05"/>
<text text-anchor="middle" x="300" y="-654.3" font-family="Helvetica,sans-Serif" font-size="14.00">5</text>
</g>
<!-- Hget -->
<g id="node28" class="node">
<title>Hget</title>
<polygon fill="none" stroke="black" points="304,-1041 304,-1062 440,-1062 440,-1041 304,-1041"/>
<text text-anchor="start" x="363.5" y="-1047.8" font-family="Times,serif" font-size="14.00">get</text>
<polygon fill="none" stroke="black" points="304,-1020 304,-1041 440,-1041 440,-1020 304,-1020"/>
<text text-anchor="start" x="307" y="-1026.8" font-family="Times,serif" font-size="14.00">Arguments: state.server</text>
<polygon fill="none" stroke="black" points="303,-1019 303,-1063 441,-1063 441,-1019 303,-1019"/>
</g>
<!-- Fprofiler&#45;&gt;Hget -->
<g id="edge19" class="edge">
<title>Fprofiler-&gt;Hget</title>
<path fill="none" stroke="blue" stroke-width="3" d="M334.58,-916.07C340.4,-921.35 346.11,-927.63 350,-934.5 362.93,-957.3 368.3,-986.73 370.51,-1008.72"/>
<polygon fill="blue" stroke="blue" stroke-width="3" points="367.03,-1009.18 371.36,-1018.85 374.01,-1008.59 367.03,-1009.18"/>
<text text-anchor="middle" x="373" y="-960.3" font-family="Helvetica,sans-Serif" font-size="14.00">4</text>
</g>
<!-- Fhttp -->
<g id="node7" class="node">
<title>Fhttp</title>
<path fill="none" stroke="blue" d="M627,-913.23C627,-915.03 614.9,-916.5 600,-916.5 585.1,-916.5 573,-915.03 573,-913.23 573,-913.23 573,-883.77 573,-883.77 573,-881.97 585.1,-880.5 600,-880.5 614.9,-880.5 627,-881.97 627,-883.77 627,-883.77 627,-913.23 627,-913.23"/>
<path fill="none" stroke="blue" d="M627,-913.23C627,-911.42 614.9,-909.95 600,-909.95 585.1,-909.95 573,-911.42 573,-913.23"/>
<text text-anchor="middle" x="600" y="-894.8" font-family="Times,serif" font-size="14.00">http</text>
</g>
<!-- Heval -->
<g id="node20" class="node">
<title>Heval</title>
<polygon fill="none" stroke="black" points="1025,-807 1025,-828 1341,-828 1341,-807 1025,-807"/>
<text text-anchor="start" x="1171.5" y="-813.8" font-family="Times,serif" font-size="14.00">eval</text>
<polygon fill="none" stroke="black" points="1025,-771 1025,-807 1341,-807 1341,-771 1025,-771"/>
<text text-anchor="start" x="1041" y="-792.8" font-family="Times,serif" font-size="14.00">Arguments: state.command, state.file, [state.server]</text>
<text text-anchor="start" x="1028" y="-777.8" font-family="Times,serif" font-size="14.00">Evaluate the command for command line or web server.</text>
<polygon fill="none" stroke="black" points="1024,-770.5 1024,-829.5 1342,-829.5 1342,-770.5 1024,-770.5"/>
</g>
<!-- Fhttp&#45;&gt;Heval -->
<g id="edge12" class="edge">
<title>Fhttp-&gt;Heval</title>
<path fill="none" stroke="blue" stroke-width="3" d="M619.78,-881C634.76,-869.49 656.4,-854.92 678,-847.5 738.24,-826.8 891.69,-814.65 1013.75,-807.99"/>
<polygon fill="blue" stroke="blue" stroke-width="3" points="1014.17,-811.47 1023.97,-807.44 1013.8,-804.48 1014.17,-811.47"/>
<text text-anchor="middle" x="689.5" y="-851.3" font-family="Helvetica,sans-Serif" font-size="14.00">132</text>
</g>
<!-- Hhttp -->
<g id="node24" class="node">
<title>Hhttp</title>
<polygon fill="none" stroke="black" points="507,-807 507,-828 694,-828 694,-807 507,-807"/>
<text text-anchor="start" x="589.5" y="-813.8" font-family="Times,serif" font-size="14.00">http</text>
<polygon fill="none" stroke="black" points="507,-771 507,-807 694,-807 694,-771 507,-771"/>
<text text-anchor="start" x="510" y="-792.8" font-family="Times,serif" font-size="14.00">Arguments: state.url, state.server</text>
<text text-anchor="start" x="518" y="-777.8" font-family="Times,serif" font-size="14.00">Answer to the URL if needed.</text>
<polygon fill="none" stroke="black" points="505.5,-770.5 505.5,-829.5 694.5,-829.5 694.5,-770.5 505.5,-770.5"/>
</g>
<!-- Fhttp&#45;&gt;Hhttp -->
<g id="edge11" class="edge">
<title>Fhttp-&gt;Hhttp</title>
<path fill="none" stroke="blue" stroke-width="3" d="M600,-880.25C600,-869.1 600,-854.13 600,-840.2"/>
<polygon fill="blue" stroke="blue" stroke-width="3" points="603.5,-839.83 600,-829.83 596.5,-839.83 603.5,-839.83"/>
<text text-anchor="middle" x="608" y="-851.3" font-family="Helvetica,sans-Serif" font-size="14.00">39</text>
</g>
<!-- Fhttp&#45;&gt;Hprint -->
<g id="edge15" class="edge">
<title>Fhttp-&gt;Hprint</title>
<path fill="none" stroke="blue" stroke-width="3" d="M572.54,-893.53C504.57,-882.94 334,-851.35 334,-801 334,-801 334,-801 334,-450.38 334,-413.51 421.64,-382.08 496.49,-361.96"/>
<polygon fill="blue" stroke="blue" stroke-width="3" points="497.72,-365.26 506.49,-359.32 495.93,-358.49 497.72,-365.26"/>
<text text-anchor="middle" x="342" y="-654.3" font-family="Helvetica,sans-Serif" font-size="14.00">60</text>
</g>
<!-- Fhttp&#45;&gt;Hget -->
<g id="edge10" class="edge">
<title>Fhttp-&gt;Hget</title>
<path fill="none" stroke="blue" stroke-width="3" d="M572.69,-910.69C557.96,-917.07 539.64,-925.56 524,-934.5 482.32,-958.32 437.5,-990.28 407.41,-1012.76"/>
<polygon fill="blue" stroke="blue" stroke-width="3" points="405.22,-1010.03 399.33,-1018.84 409.43,-1015.63 405.22,-1010.03"/>
<text text-anchor="middle" x="532" y="-960.3" font-family="Helvetica,sans-Serif" font-size="14.00">49</text>
</g>
<!-- Ftimer -->
<g id="node8" class="node">
<title>Ftimer</title>
<path fill="none" stroke="blue" d="M1751,-913.23C1751,-915.03 1738.9,-916.5 1724,-916.5 1709.1,-916.5 1697,-915.03 1697,-913.23 1697,-913.23 1697,-883.77 1697,-883.77 1697,-881.97 1709.1,-880.5 1724,-880.5 1738.9,-880.5 1751,-881.97 1751,-883.77 1751,-883.77 1751,-913.23 1751,-913.23"/>
<path fill="none" stroke="blue" d="M1751,-913.23C1751,-911.42 1738.9,-909.95 1724,-909.95 1709.1,-909.95 1697,-911.42 1697,-913.23"/>
<text text-anchor="middle" x="1724" y="-894.8" font-family="Times,serif" font-size="14.00">timer</text>
</g>
<!-- Htimer -->
<g id="node30" class="node">
<title>Htimer</title>
<polygon fill="none" stroke="black" points="1708,-807 1708,-828 1908,-828 1908,-807 1708,-807"/>
<text text-anchor="start" x="1793" y="-813.8" font-family="Times,serif" font-size="14.00">timer</text>
<polygon fill="none" stroke="black" points="1708,-771 1708,-807 1908,-807 1908,-771 1708,-771"/>
<text text-anchor="start" x="1759" y="-792.8" font-family="Times,serif" font-size="14.00">Arguments: None</text>
<text text-anchor="start" x="1711" y="-777.8" font-family="Times,serif" font-size="14.00">The event is sent every 10 seconds.</text>
<polygon fill="none" stroke="black" points="1707,-770.5 1707,-829.5 1909,-829.5 1909,-770.5 1707,-770.5"/>
</g>
<!-- Ftimer&#45;&gt;Htimer -->
<g id="edge8" class="edge">
<title>Ftimer-&gt;Htimer</title>
<path fill="none" stroke="blue" stroke-width="3" d="M1746.55,-881.23C1753.5,-875.69 1760.91,-869.2 1767,-862.5 1773.73,-855.1 1780.16,-846.51 1785.85,-838.13"/>
<polygon fill="blue" stroke="blue" stroke-width="3" points="1788.93,-839.82 1791.49,-829.54 1783.08,-835.98 1788.93,-839.82"/>
<text text-anchor="middle" x="1782" y="-851.3" font-family="Helvetica,sans-Serif" font-size="14.00">9</text>
</g>
<!-- Hstart_thread -->
<g id="node31" class="node">
<title>Hstart_thread</title>
<polygon fill="none" stroke="black" points="943,-123.5 943,-144.5 1091,-144.5 1091,-123.5 943,-123.5"/>
<text text-anchor="start" x="985" y="-130.3" font-family="Times,serif" font-size="14.00">start_thread</text>
<polygon fill="none" stroke="black" points="943,-87.5 943,-123.5 1091,-123.5 1091,-87.5 943,-87.5"/>
<text text-anchor="start" x="946" y="-109.3" font-family="Times,serif" font-size="14.00">Arguments: state.function</text>
<text text-anchor="start" x="959.5" y="-94.3" font-family="Times,serif" font-size="14.00">The function to start.</text>
<polygon fill="none" stroke="black" points="942,-87 942,-146 1092,-146 1092,-87 942,-87"/>
</g>
<!-- Ftimer&#45;&gt;Hstart_thread -->
<g id="edge6" class="edge">
<title>Ftimer-&gt;Hstart_thread</title>
<path fill="none" stroke="blue" stroke-width="3" d="M1715.45,-880.4C1709.23,-866.94 1701.33,-847.52 1698,-829.5 1693.24,-803.71 1697.44,-796.72 1698,-770.5 1699.2,-714.57 1745.75,-313.31 1714,-267.25 1627.95,-142.43 1232.17,-169.02 1102.3,-145.9"/>
<polygon fill="blue" stroke="blue" stroke-width="3" points="1102.83,-142.44 1092.34,-143.91 1101.46,-149.3 1102.83,-142.44"/>
<text text-anchor="middle" x="1723" y="-499.3" font-family="Helvetica,sans-Serif" font-size="14.00">2</text>
</g>
<!-- Flog -->
<g id="node9" class="node">
<title>Flog</title>
<path fill="none" stroke="blue" d="M1035,-466.1C1035,-467.91 1022.9,-469.38 1008,-469.38 993.1,-469.38 981,-467.91 981,-466.1 981,-466.1 981,-436.65 981,-436.65 981,-434.84 993.1,-433.38 1008,-433.38 1022.9,-433.38 1035,-434.84 1035,-436.65 1035,-436.65 1035,-466.1 1035,-466.1"/>
<path fill="none" stroke="blue" d="M1035,-466.1C1035,-464.3 1022.9,-462.83 1008,-462.83 993.1,-462.83 981,-464.3 981,-466.1"/>
<text text-anchor="middle" x="1008" y="-447.68" font-family="Times,serif" font-size="14.00">log</text>
</g>
<!-- Flog&#45;&gt;Hprint -->
<g id="edge18" class="edge">
<title>Flog-&gt;Hprint</title>
<path fill="none" stroke="blue" stroke-width="3" d="M981,-438.7C969.96,-434.16 956.99,-429.14 945,-425.25 866.81,-399.89 776.67,-377.33 708.28,-361.54"/>
<polygon fill="blue" stroke="blue" stroke-width="3" points="708.88,-358.09 698.35,-359.26 707.31,-364.91 708.88,-358.09"/>
<text text-anchor="middle" x="892.5" y="-396.05" font-family="Helvetica,sans-Serif" font-size="14.00">200</text>
</g>
<!-- Flog&#45;&gt;Hstart_thread -->
<g id="edge17" class="edge">
<title>Flog-&gt;Hstart_thread</title>
<path fill="none" stroke="blue" stroke-width="3" d="M1008.47,-432.95C1009.86,-381.44 1013.99,-228.98 1015.94,-156.56"/>
<polygon fill="blue" stroke="blue" stroke-width="3" points="1019.45,-156.56 1016.22,-146.47 1012.45,-156.37 1019.45,-156.56"/>
<text text-anchor="middle" x="1017" y="-271.05" font-family="Helvetica,sans-Serif" font-size="14.00">2</text>
</g>
<!-- Faffectation -->
<g id="node10" class="node">
<title>Faffectation</title>
<path fill="none" stroke="blue" d="M1261,-716.23C1261,-718.03 1244.42,-719.5 1224,-719.5 1203.58,-719.5 1187,-718.03 1187,-716.23 1187,-716.23 1187,-686.77 1187,-686.77 1187,-684.97 1203.58,-683.5 1224,-683.5 1244.42,-683.5 1261,-684.97 1261,-686.77 1261,-686.77 1261,-716.23 1261,-716.23"/>
<path fill="none" stroke="blue" d="M1261,-716.23C1261,-714.42 1244.42,-712.95 1224,-712.95 1203.58,-712.95 1187,-714.42 1187,-716.23"/>
<text text-anchor="middle" x="1224" y="-697.8" font-family="Times,serif" font-size="14.00">affectation</text>
</g>
<!-- Fhome_repl -->
<g id="node11" class="node">
<title>Fhome_repl</title>
<path fill="none" stroke="blue" d="M706,-244.6C706,-247.24 693.9,-249.38 679,-249.38 664.1,-249.38 652,-247.24 652,-244.6 652,-244.6 652,-201.65 652,-201.65 652,-199.01 664.1,-196.87 679,-196.87 693.9,-196.87 706,-199.01 706,-201.65 706,-201.65 706,-244.6 706,-244.6"/>
<path fill="none" stroke="blue" d="M706,-244.6C706,-241.97 693.9,-239.83 679,-239.83 664.1,-239.83 652,-241.97 652,-244.6"/>
<text text-anchor="middle" x="679" y="-226.93" font-family="Times,serif" font-size="14.00">home</text>
<text text-anchor="middle" x="679" y="-211.93" font-family="Times,serif" font-size="14.00">repl</text>
</g>
<!-- Fthread -->
<g id="node12" class="node">
<title>Fthread</title>
<path fill="none" stroke="blue" d="M1279,-32.73C1279,-34.53 1266.9,-36 1252,-36 1237.1,-36 1225,-34.53 1225,-32.73 1225,-32.73 1225,-3.27 1225,-3.27 1225,-1.47 1237.1,0 1252,0 1266.9,0 1279,-1.47 1279,-3.27 1279,-3.27 1279,-32.73 1279,-32.73"/>
<path fill="none" stroke="blue" d="M1279,-32.73C1279,-30.92 1266.9,-29.45 1252,-29.45 1237.1,-29.45 1225,-30.92 1225,-32.73"/>
<text text-anchor="middle" x="1252" y="-14.3" font-family="Times,serif" font-size="14.00">thread</text>
</g>
<!-- Ffunctionality -->
<g id="node13" class="node">
<title>Ffunctionality</title>
<path fill="none" stroke="blue" d="M486,-466.1C486,-467.91 466.73,-469.38 443,-469.38 419.27,-469.38 400,-467.91 400,-466.1 400,-466.1 400,-436.65 400,-436.65 400,-434.84 419.27,-433.38 443,-433.38 466.73,-433.38 486,-434.84 486,-436.65 486,-436.65 486,-466.1 486,-466.1"/>
<path fill="none" stroke="blue" d="M486,-466.1C486,-464.3 466.73,-462.83 443,-462.83 419.27,-462.83 400,-464.3 400,-466.1"/>
<text text-anchor="middle" x="443" y="-447.68" font-family="Times,serif" font-size="14.00">functionality</text>
</g>
<!-- Fstdin -->
<g id="node14" class="node">
<title>Fstdin</title>
<path fill="none" stroke="blue" d="M1536,-237.85C1536,-239.66 1523.9,-241.12 1509,-241.12 1494.1,-241.12 1482,-239.66 1482,-237.85 1482,-237.85 1482,-208.4 1482,-208.4 1482,-206.59 1494.1,-205.12 1509,-205.12 1523.9,-205.12 1536,-206.59 1536,-208.4 1536,-208.4 1536,-237.85 1536,-237.85"/>
<path fill="none" stroke="blue" d="M1536,-237.85C1536,-236.05 1523.9,-234.58 1509,-234.58 1494.1,-234.58 1482,-236.05 1482,-237.85"/>
<text text-anchor="middle" x="1509" y="-219.43" font-family="Times,serif" font-size="14.00">stdin</text>
</g>
<!-- Fstdin&#45;&gt;Heval -->
<g id="edge9" class="edge">
<title>Fstdin-&gt;Heval</title>
<path fill="none" stroke="blue" stroke-width="3" d="M1511.64,-241.21C1518.08,-283.94 1534.5,-398.92 1540,-495.5 1546.68,-612.91 1564.12,-673.51 1477,-752.5 1457.4,-770.27 1406.46,-781.26 1352.38,-788.06"/>
<polygon fill="blue" stroke="blue" stroke-width="3" points="1351.76,-784.61 1342.25,-789.28 1352.6,-791.56 1351.76,-784.61"/>
<text text-anchor="middle" x="1548" y="-499.3" font-family="Helvetica,sans-Serif" font-size="14.00">11</text>
</g>
<!-- Fstdin&#45;&gt;Hprint -->
<g id="edge4" class="edge">
<title>Fstdin-&gt;Hprint</title>
<path fill="none" stroke="blue" stroke-width="3" d="M1481.67,-224.46C1364.55,-226.09 904.52,-234.48 764,-267.25 723.82,-276.62 680.96,-295.14 649.28,-310.63"/>
<polygon fill="blue" stroke="blue" stroke-width="3" points="647.63,-307.54 640.23,-315.12 650.75,-313.81 647.63,-307.54"/>
<text text-anchor="middle" x="772" y="-271.05" font-family="Helvetica,sans-Serif" font-size="14.00">20</text>
</g>
<!-- Fstdin&#45;&gt;Hstart_thread -->
<g id="edge5" class="edge">
<title>Fstdin-&gt;Hstart_thread</title>
<path fill="none" stroke="blue" stroke-width="3" d="M1481.97,-218.45C1417.56,-209.39 1249.93,-184.12 1102.11,-146.17"/>
<polygon fill="blue" stroke="blue" stroke-width="3" points="1102.96,-142.77 1092.4,-143.65 1101.2,-149.55 1102.96,-142.77"/>
<text text-anchor="middle" x="1249" y="-167.8" font-family="Helvetica,sans-Serif" font-size="14.00">2</text>
</g>
<!-- Freload -->
<g id="node15" class="node">
<title>Freload</title>
<path fill="none" stroke="blue" d="M54,-237.85C54,-239.66 41.9,-241.12 27,-241.12 12.1,-241.12 0,-239.66 0,-237.85 0,-237.85 0,-208.4 0,-208.4 0,-206.59 12.1,-205.12 27,-205.12 41.9,-205.12 54,-206.59 54,-208.4 54,-208.4 54,-237.85 54,-237.85"/>
<path fill="none" stroke="blue" d="M54,-237.85C54,-236.05 41.9,-234.58 27,-234.58 12.1,-234.58 0,-236.05 0,-237.85"/>
<text text-anchor="middle" x="27" y="-219.43" font-family="Times,serif" font-size="14.00">reload</text>
</g>
<!-- Fhome -->
<g id="node16" class="node">
<title>Fhome</title>
<path fill="none" stroke="blue" d="M750,-716.23C750,-718.03 737.9,-719.5 723,-719.5 708.1,-719.5 696,-718.03 696,-716.23 696,-716.23 696,-686.77 696,-686.77 696,-684.97 708.1,-683.5 723,-683.5 737.9,-683.5 750,-684.97 750,-686.77 750,-686.77 750,-716.23 750,-716.23"/>
<path fill="none" stroke="blue" d="M750,-716.23C750,-714.42 737.9,-712.95 723,-712.95 708.1,-712.95 696,-714.42 696,-716.23"/>
<text text-anchor="middle" x="723" y="-697.8" font-family="Times,serif" font-size="14.00">home</text>
</g>
<!-- Hhome_page -->
<g id="node23" class="node">
<title>Hhome_page</title>
<polygon fill="none" stroke="black" points="519,-610.5 519,-631.5 945,-631.5 945,-610.5 519,-610.5"/>
<text text-anchor="start" x="700" y="-617.3" font-family="Times,serif" font-size="14.00">home_page</text>
<polygon fill="none" stroke="black" points="519,-529.5 519,-610.5 945,-610.5 945,-529.5 519,-529.5"/>
<text text-anchor="start" x="668.5" y="-596.3" font-family="Times,serif" font-size="14.00">Arguments: state.items</text>
<text text-anchor="start" x="522" y="-581.3" font-family="Times,serif" font-size="14.00">Append HTML elements to display, each element is defined by a dictionary:</text>
<text text-anchor="start" x="569" y="-566.3" font-family="Times,serif" font-size="14.00">{'column': str, 'row': str, 'html': str, 'src': str, 'css': str, 'js': str,</text>
<text text-anchor="start" x="571" y="-551.3" font-family="Times,serif" font-size="14.00">'title': True, 'attributes': 'onclick="..." onmouseenter="..."'}</text>
<text text-anchor="start" x="588" y="-536.3" font-family="Times,serif" font-size="14.00">'column' and 'row' must be valid HTML class names</text>
<polygon fill="none" stroke="black" points="518,-528.5 518,-632.5 946,-632.5 946,-528.5 518,-528.5"/>
</g>
<!-- Fhome&#45;&gt;Hhome_page -->
<g id="edge13" class="edge">
<title>Fhome-&gt;Hhome_page</title>
<path fill="none" stroke="blue" stroke-width="3" d="M750.31,-697.67C770.8,-693.96 797.52,-685.36 811,-665.5 816.49,-657.4 817.01,-649.34 814.25,-641.58"/>
<polygon fill="blue" stroke="blue" stroke-width="3" points="817.32,-639.9 809.61,-632.64 811.11,-643.13 817.32,-639.9"/>
<text text-anchor="middle" x="824" y="-654.3" font-family="Helvetica,sans-Serif" font-size="14.00">11</text>
</g>
<!-- Fhome&#45;&gt;Hprint -->
<g id="edge7" class="edge">
<title>Fhome-&gt;Hprint</title>
<path fill="none" stroke="blue" stroke-width="3" d="M695.67,-701.27C640.56,-701.41 514.68,-694.4 436,-632.5 388.2,-594.89 388.17,-569.65 374,-510.5 367.04,-481.42 381.67,-436.15 391,-425.25 416.49,-395.45 453.84,-375.68 489.99,-362.64"/>
<polygon fill="blue" stroke="blue" stroke-width="3" points="491.34,-365.88 499.64,-359.3 489.05,-359.26 491.34,-365.88"/>
<text text-anchor="middle" x="378" y="-499.3" font-family="Helvetica,sans-Serif" font-size="14.00">5</text>
</g>
<!-- Ftranslations -->
<g id="node17" class="node">
<title>Ftranslations</title>
<path fill="none" stroke="blue" d="M564.5,-237.85C564.5,-239.66 546.8,-241.12 525,-241.12 503.2,-241.12 485.5,-239.66 485.5,-237.85 485.5,-237.85 485.5,-208.4 485.5,-208.4 485.5,-206.59 503.2,-205.12 525,-205.12 546.8,-205.12 564.5,-206.59 564.5,-208.4 564.5,-208.4 564.5,-237.85 564.5,-237.85"/>
<path fill="none" stroke="blue" d="M564.5,-237.85C564.5,-236.05 546.8,-234.58 525,-234.58 503.2,-234.58 485.5,-236.05 485.5,-237.85"/>
<text text-anchor="middle" x="525" y="-219.43" font-family="Times,serif" font-size="14.00">translations</text>
</g>
<!-- Htranslations -->
<g id="node22" class="node">
<title>Htranslations</title>
<polygon fill="none" stroke="black" points="442,-116.5 442,-137.5 608,-137.5 608,-116.5 442,-116.5"/>
<text text-anchor="start" x="493.5" y="-123.3" font-family="Times,serif" font-size="14.00">translations</text>
<polygon fill="none" stroke="black" points="442,-95.5 442,-116.5 608,-116.5 608,-95.5 442,-95.5"/>
<text text-anchor="start" x="445" y="-102.3" font-family="Times,serif" font-size="14.00">Arguments: state.translations</text>
<polygon fill="none" stroke="black" points="441,-94.5 441,-138.5 609,-138.5 609,-94.5 441,-94.5"/>
</g>
<!-- Ftranslations&#45;&gt;Htranslations -->
<g id="edge2" class="edge">
<title>Ftranslations-&gt;Htranslations</title>
<path fill="none" stroke="blue" stroke-width="3" d="M525,-204.85C525,-189.71 525,-167.33 525,-149.01"/>
<polygon fill="blue" stroke="blue" stroke-width="3" points="528.5,-148.78 525,-138.78 521.5,-148.78 528.5,-148.78"/>
<text text-anchor="middle" x="533" y="-167.8" font-family="Helvetica,sans-Serif" font-size="14.00">15</text>
</g>
<!-- Fdump -->
<g id="node18" class="node">
<title>Fdump</title>
<path fill="none" stroke="blue" d="M936,-466.1C936,-467.91 923.9,-469.38 909,-469.38 894.1,-469.38 882,-467.91 882,-466.1 882,-466.1 882,-436.65 882,-436.65 882,-434.84 894.1,-433.38 909,-433.38 923.9,-433.38 936,-434.84 936,-436.65 936,-436.65 936,-466.1 936,-466.1"/>
<path fill="none" stroke="blue" d="M936,-466.1C936,-464.3 923.9,-462.83 909,-462.83 894.1,-462.83 882,-464.3 882,-466.1"/>
<text text-anchor="middle" x="909" y="-447.68" font-family="Times,serif" font-size="14.00">dump</text>
</g>
<!-- Fhelp -->
<g id="node19" class="node">
<title>Fhelp</title>
<path fill="none" stroke="blue" d="M1310,-466.1C1310,-467.91 1297.9,-469.38 1283,-469.38 1268.1,-469.38 1256,-467.91 1256,-466.1 1256,-466.1 1256,-436.65 1256,-436.65 1256,-434.84 1268.1,-433.38 1283,-433.38 1297.9,-433.38 1310,-434.84 1310,-436.65 1310,-436.65 1310,-466.1 1310,-466.1"/>
<path fill="none" stroke="blue" d="M1310,-466.1C1310,-464.3 1297.9,-462.83 1283,-462.83 1268.1,-462.83 1256,-464.3 1256,-466.1"/>
<text text-anchor="middle" x="1283" y="-447.68" font-family="Times,serif" font-size="14.00">help</text>
</g>
<!-- Hhelp -->
<g id="node21" class="node">
<title>Hhelp</title>
<polygon fill="none" stroke="black" points="1125,-344.25 1125,-365.25 1353,-365.25 1353,-344.25 1125,-344.25"/>
<text text-anchor="start" x="1227" y="-351.05" font-family="Times,serif" font-size="14.00">help</text>
<polygon fill="none" stroke="black" points="1125,-308.25 1125,-344.25 1353,-344.25 1353,-308.25 1125,-308.25"/>
<text text-anchor="start" x="1178.5" y="-330.05" font-family="Times,serif" font-size="14.00">Arguments: state.help</text>
<text text-anchor="start" x="1128" y="-315.05" font-family="Times,serif" font-size="14.00">Append new help messages to state.help</text>
<polygon fill="none" stroke="black" points="1124,-307.75 1124,-366.75 1354,-366.75 1354,-307.75 1124,-307.75"/>
</g>
<!-- Fhelp&#45;&gt;Hhelp -->
<g id="edge16" class="edge">
<title>Fhelp-&gt;Hhelp</title>
<path fill="none" stroke="blue" stroke-width="3" d="M1276.32,-433.35C1270.39,-418.25 1261.53,-395.66 1253.93,-376.29"/>
<polygon fill="blue" stroke="blue" stroke-width="3" points="1257.11,-374.83 1250.2,-366.8 1250.6,-377.39 1257.11,-374.83"/>
<text text-anchor="middle" x="1272" y="-396.05" font-family="Helvetica,sans-Serif" font-size="14.00">11</text>
</g>
<!-- Heval&#45;&gt;Fgraph -->
<g id="edge25" class="edge">
<title>Heval-&gt;Fgraph</title>
<path fill="none" stroke="black" d="M1237.62,-770.46C1244.75,-765.15 1251.48,-759.16 1257,-752.5 1276.92,-728.48 1270.87,-714.69 1270,-683.5 1269.59,-668.83 1266.92,-665.02 1269,-650.5 1278.2,-586.32 1300.8,-574.68 1310,-510.5 1310.95,-503.9 1314.01,-500.82 1310,-495.5 1292.46,-472.25 1273.3,-490 1247,-477.5 1244.93,-476.52 1242.85,-475.42 1240.79,-474.24"/>
<polygon fill="black" stroke="black" points="1242.33,-471.07 1231.99,-468.74 1238.62,-477.01 1242.33,-471.07"/>
<text text-anchor="middle" x="1298" y="-654.3" font-family="Helvetica,sans-Serif" font-size="14.00">do_graph</text>
</g>
<!-- Heval&#45;&gt;Fcalc -->
<g id="edge22" class="edge">
<title>Heval-&gt;Fcalc</title>
<path fill="none" stroke="black" d="M1170.81,-770.31C1165.24,-757.2 1158.69,-741.78 1153.24,-728.96"/>
<polygon fill="black" stroke="black" points="1156.46,-727.58 1149.33,-719.74 1150.01,-730.31 1156.46,-727.58"/>
<text text-anchor="middle" x="1175.5" y="-741.3" font-family="Helvetica,sans-Serif" font-size="14.00">calc</text>
</g>
<!-- Heval&#45;&gt;Flog -->
<g id="edge28" class="edge">
<title>Heval-&gt;Flog</title>
<path fill="none" stroke="black" d="M1144.03,-770.42C1118.7,-748.08 1092.67,-715.54 1106,-683.5 1116.47,-658.33 1269.53,-535.67 1280,-510.5 1282.56,-504.34 1284.33,-500.57 1280,-495.5 1278.1,-493.27 1119.5,-469.15 1045.39,-457.99"/>
<polygon fill="black" stroke="black" points="1045.5,-454.46 1035.1,-456.44 1044.46,-461.39 1045.5,-454.46"/>
<text text-anchor="middle" x="1146.5" y="-654.3" font-family="Helvetica,sans-Serif" font-size="14.00">logs</text>
</g>
<!-- Heval&#45;&gt;Faffectation -->
<g id="edge21" class="edge">
<title>Heval-&gt;Faffectation</title>
<path fill="none" stroke="black" d="M1195.19,-770.31C1200.76,-757.2 1207.31,-741.78 1212.76,-728.96"/>
<polygon fill="black" stroke="black" points="1215.99,-730.31 1216.67,-719.74 1209.54,-727.58 1215.99,-730.31"/>
<text text-anchor="middle" x="1230.5" y="-741.3" font-family="Helvetica,sans-Serif" font-size="14.00">set_var</text>
</g>
<!-- Heval&#45;&gt;Fthread -->
<g id="edge30" class="edge">
<title>Heval-&gt;Fthread</title>
<path fill="none" stroke="black" d="M1342.04,-789.7C1393.12,-783.01 1449.11,-771.67 1498,-752.5 1561.7,-727.53 1590.16,-724.38 1625,-665.5 1687.15,-560.48 1632.9,-512.78 1652,-392.25 1673.57,-256.18 1795.92,-191.39 1706,-87 1652.11,-24.44 1388.05,-18.6 1289.33,-18.65"/>
<polygon fill="black" stroke="black" points="1289.2,-15.15 1279.21,-18.68 1289.22,-22.15 1289.2,-15.15"/>
<text text-anchor="middle" x="1682.5" y="-396.05" font-family="Helvetica,sans-Serif" font-size="14.00">do_thread</text>
</g>
<!-- Heval&#45;&gt;Ffunctionality -->
<g id="edge24" class="edge">
<title>Heval-&gt;Ffunctionality</title>
<path fill="none" stroke="black" d="M1078.3,-770.5C935.57,-731.62 697.2,-666.61 695,-665.5 685.4,-660.65 685.96,-654.57 676,-650.5 606.89,-622.27 572.11,-672.37 509,-632.5 455.19,-598.5 451.32,-571.75 434,-510.5 431.15,-500.44 432.03,-489.12 434.1,-479.17"/>
<polygon fill="black" stroke="black" points="437.51,-479.95 436.58,-469.4 430.72,-478.22 437.51,-479.95"/>
<text text-anchor="middle" x="751" y="-654.3" font-family="Helvetica,sans-Serif" font-size="14.00">display_or_disable</text>
</g>
<!-- Heval&#45;&gt;Fstdin -->
<g id="edge32" class="edge">
<title>Heval-&gt;Fstdin</title>
<path fill="none" stroke="black" d="M1342.01,-783.99C1381.53,-777.04 1416.5,-766.98 1430,-752.5 1508.43,-668.39 1443.11,-609.25 1460,-495.5 1473.34,-405.69 1493.81,-300 1503.52,-251.26"/>
<polygon fill="black" stroke="black" points="1507,-251.7 1505.53,-241.21 1500.14,-250.33 1507,-251.7"/>
<text text-anchor="middle" x="1498" y="-499.3" font-family="Helvetica,sans-Serif" font-size="14.00">syntax_error</text>
</g>
<!-- Heval&#45;&gt;Freload -->
<g id="edge29" class="edge">
<title>Heval-&gt;Freload</title>
<path fill="none" stroke="black" d="M1023.76,-790.21C797.69,-775.29 397.43,-739.18 274,-665.5 129.98,-579.53 73.32,-537.31 34,-374.25 23.92,-332.46 23.92,-282.27 25.19,-251.81"/>
<polygon fill="black" stroke="black" points="28.7,-251.7 25.71,-241.53 21.71,-251.35 28.7,-251.7"/>
<text text-anchor="middle" x="116.5" y="-499.3" font-family="Helvetica,sans-Serif" font-size="14.00">do_reload</text>
</g>
<!-- Heval&#45;&gt;Fhome -->
<g id="edge27" class="edge">
<title>Heval-&gt;Fhome</title>
<path fill="none" stroke="black" d="M1023.78,-795.36C922.01,-790.45 801.12,-779.02 757,-752.5 747.69,-746.9 740.35,-737.66 734.91,-728.63"/>
<polygon fill="black" stroke="black" points="737.96,-726.92 730.1,-719.82 731.82,-730.27 737.96,-726.92"/>
<text text-anchor="middle" x="774.5" y="-741.3" font-family="Helvetica,sans-Serif" font-size="14.00">home</text>
</g>
<!-- Heval&#45;&gt;Ftranslations -->
<g id="edge31" class="edge">
<title>Heval-&gt;Ftranslations</title>
<path fill="none" stroke="black" d="M1269.93,-770.4C1316.8,-749.65 1369.53,-716.18 1392,-665.5 1400.25,-646.89 1377.29,-314.75 1363,-300.25 1330.76,-267.54 644.57,-249.45 643,-249.25 620.33,-246.32 595.54,-241.32 574.56,-236.55"/>
<polygon fill="black" stroke="black" points="575.13,-233.09 564.59,-234.24 573.54,-239.91 575.13,-233.09"/>
<text text-anchor="middle" x="1416" y="-499.3" font-family="Helvetica,sans-Serif" font-size="14.00">do_dump</text>
</g>
<!-- Heval&#45;&gt;Fdump -->
<g id="edge23" class="edge">
<title>Heval-&gt;Fdump</title>
<path fill="none" stroke="black" d="M1133.6,-770.5C1125.95,-765.02 1118.46,-758.96 1112,-752.5 1015.55,-655.97 1024.44,-605.74 944,-495.5 939.72,-489.64 934.94,-483.5 930.31,-477.75"/>
<polygon fill="black" stroke="black" points="932.76,-475.21 923.72,-469.68 927.34,-479.64 932.76,-475.21"/>
<text text-anchor="middle" x="1071" y="-654.3" font-family="Helvetica,sans-Serif" font-size="14.00">do_dump</text>
</g>
<!-- Heval&#45;&gt;Fhelp -->
<g id="edge26" class="edge">
<title>Heval-&gt;Fhelp</title>
<path fill="none" stroke="black" d="M1250.77,-770.43C1259.44,-765.18 1267.8,-759.21 1275,-752.5 1307.96,-721.79 1315.01,-708.92 1327,-665.5 1332.71,-644.83 1382.59,-634.59 1325,-495.5 1322.09,-488.46 1317.43,-481.94 1312.25,-476.2"/>
<polygon fill="black" stroke="black" points="1314.53,-473.53 1305,-468.9 1309.56,-478.46 1314.53,-473.53"/>
<text text-anchor="middle" x="1362" y="-654.3" font-family="Helvetica,sans-Serif" font-size="14.00">get_help</text>
</g>
<!-- Hhome_page&#45;&gt;Fgraph -->
<g id="edge35" class="edge">
<title>Hhome_page-&gt;Fgraph</title>
<path fill="none" stroke="black" d="M946.12,-532.43C974.75,-525.45 1003.66,-518.06 1031,-510.5 1081.05,-496.67 1137.95,-477.75 1174.14,-465.3"/>
<polygon fill="black" stroke="black" points="1175.47,-468.55 1183.77,-461.97 1173.18,-461.93 1175.47,-468.55"/>
<text text-anchor="middle" x="1119.5" y="-499.3" font-family="Helvetica,sans-Serif" font-size="14.00">home_graph</text>
</g>
<!-- Hhome_page&#45;&gt;Fhome_buttons -->
<g id="edge37" class="edge">
<title>Hhome_page-&gt;Fhome_buttons</title>
<path fill="none" stroke="black" d="M536.12,-528.44C530.2,-523.04 524.78,-517.08 520,-510.5 515.14,-503.8 514.51,-495.58 515.93,-487.46"/>
<polygon fill="black" stroke="black" points="519.34,-488.27 518.55,-477.7 512.58,-486.46 519.34,-488.27"/>
<text text-anchor="middle" x="563.5" y="-499.3" font-family="Helvetica,sans-Serif" font-size="14.00">home_buttons</text>
</g>
<!-- Hhome_page&#45;&gt;Fhome_click -->
<g id="edge38" class="edge">
<title>Hhome_page-&gt;Fhome_click</title>
<path fill="none" stroke="black" d="M754.68,-528.44C756.74,-522.47 758.58,-516.41 760,-510.5 761.76,-503.19 762.91,-495.23 763.67,-487.61"/>
<polygon fill="black" stroke="black" points="767.17,-487.78 764.48,-477.53 760.19,-487.22 767.17,-487.78"/>
<text text-anchor="middle" x="801.5" y="-499.3" font-family="Helvetica,sans-Serif" font-size="14.00">home_dump</text>
</g>
<!-- Hhome_page&#45;&gt;Fhome_click -->
<g id="edge42" class="edge">
<title>Hhome_page-&gt;Fhome_click</title>
<path fill="none" stroke="black" d="M676.26,-528.17C670.65,-517.42 669.2,-506.13 676,-495.5 686.29,-479.42 697.8,-485.79 715,-477.5 719.42,-475.37 724.04,-473.11 728.6,-470.84"/>
<polygon fill="black" stroke="black" points="730.45,-473.83 737.83,-466.23 727.32,-467.57 730.45,-473.83"/>
<text text-anchor="middle" x="716" y="-499.3" font-family="Helvetica,sans-Serif" font-size="14.00">home_reload</text>
</g>
<!-- Hhome_page&#45;&gt;Flog -->
<g id="edge40" class="edge">
<title>Hhome_page-&gt;Flog</title>
<path fill="none" stroke="black" d="M908.65,-528.49C920.88,-523 932.79,-517.01 944,-510.5 959.44,-501.54 974.35,-488.35 985.89,-476.81"/>
<polygon fill="black" stroke="black" points="988.51,-479.13 992.95,-469.52 983.48,-474.26 988.51,-479.13"/>
<text text-anchor="middle" x="996.5" y="-499.3" font-family="Helvetica,sans-Serif" font-size="14.00">home_log</text>
</g>
<!-- Hhome_page&#45;&gt;Fhome_repl -->
<g id="edge39" class="edge">
<title>Hhome_page-&gt;Fhome_repl</title>
<path fill="none" stroke="black" d="M647.36,-528.39C642.54,-522.89 638.32,-516.93 635,-510.5 609.96,-461.97 599.53,-485.64 709,-392.25 722.61,-380.64 735.19,-389.21 745,-374.25 771.12,-334.45 773.34,-308.74 750,-267.25 742.42,-253.77 728.72,-244.02 715.37,-237.23"/>
<polygon fill="black" stroke="black" points="716.81,-234.04 706.27,-233 713.86,-240.39 716.81,-234.04"/>
<text text-anchor="middle" x="741.5" y="-396.05" font-family="Helvetica,sans-Serif" font-size="14.00">home_repl</text>
</g>
<!-- Hhome_page&#45;&gt;Fthread -->
<g id="edge41" class="edge">
<title>Hhome_page-&gt;Fthread</title>
<path fill="none" stroke="black" d="M671.57,-528.1C665.97,-517.91 663.77,-506.84 668,-495.5 682.47,-456.76 695.3,-449.21 729,-425.25 746.55,-412.77 760.12,-423.72 774,-407.25 812.5,-361.55 802,-335.5 802,-275.75 802,-275.75 802,-275.75 802,-115.5 802,-31.31 1106.93,-20.34 1214.77,-19.09"/>
<polygon fill="black" stroke="black" points="1214.9,-22.59 1224.86,-18.99 1214.83,-15.59 1214.9,-22.59"/>
<text text-anchor="middle" x="855.5" y="-271.05" font-family="Helvetica,sans-Serif" font-size="14.00">home_thread_list</text>
</g>
<!-- Hhome_page&#45;&gt;Ffunctionality -->
<g id="edge34" class="edge">
<title>Hhome_page-&gt;Ffunctionality</title>
<path fill="none" stroke="black" d="M517.84,-546.27C483.63,-536.79 455.63,-524.98 444,-510.5 437.18,-502 435.93,-490.33 436.77,-479.67"/>
<polygon fill="black" stroke="black" points="440.28,-479.89 438.18,-469.51 433.34,-478.93 440.28,-479.89"/>
<text text-anchor="middle" x="478" y="-499.3" font-family="Helvetica,sans-Serif" font-size="14.00">home_help</text>
</g>
<!-- Hhome_page&#45;&gt;Fdump -->
<g id="edge33" class="edge">
<title>Hhome_page-&gt;Fdump</title>
<path fill="none" stroke="black" d="M818.34,-528.47C827.16,-522.63 835.85,-516.58 844,-510.5 858.04,-500.03 872.66,-487.16 884.47,-476.19"/>
<polygon fill="black" stroke="black" points="886.91,-478.7 891.79,-469.3 882.11,-473.6 886.91,-478.7"/>
<text text-anchor="middle" x="901.5" y="-499.3" font-family="Helvetica,sans-Serif" font-size="14.00">home_dump</text>
</g>
<!-- Hhome_page&#45;&gt;Fhelp -->
<g id="edge36" class="edge">
<title>Hhome_page-&gt;Fhelp</title>
<path fill="none" stroke="black" d="M946.04,-554.25C1015.59,-543.64 1092.67,-529.29 1162,-510.5 1201.11,-499.9 1211.24,-496.57 1247,-477.5 1248.97,-476.45 1250.95,-475.31 1252.93,-474.12"/>
<polygon fill="black" stroke="black" points="1254.92,-477 1261.45,-468.65 1251.14,-471.11 1254.92,-477"/>
<text text-anchor="middle" x="1242" y="-499.3" font-family="Helvetica,sans-Serif" font-size="14.00">home_help</text>
</g>
<!-- Hhttp&#45;&gt;Fgraph -->
<g id="edge43" class="edge">
<title>Hhttp-&gt;Fgraph</title>
<path fill="none" stroke="black" d="M601.24,-770.35C604.43,-735.75 615.45,-678.68 653,-650.5 679.89,-630.32 922.2,-639.84 955,-632.5 1097.48,-600.64 1178.15,-631.4 1260,-510.5 1263.74,-504.98 1262.75,-501.57 1260,-495.5 1257.65,-490.31 1249.59,-482.54 1240.67,-475.03"/>
<polygon fill="black" stroke="black" points="1242.68,-472.16 1232.72,-468.55 1238.26,-477.58 1242.68,-472.16"/>
<text text-anchor="middle" x="664.5" y="-654.3" font-family="Helvetica,sans-Serif" font-size="14.00">http</text>
</g>
<!-- Hhttp&#45;&gt;Fhome -->
<g id="edge44" class="edge">
<title>Hhttp-&gt;Fhome</title>
<path fill="none" stroke="black" d="M639.59,-770.33C647.41,-764.51 655.51,-758.37 663,-752.5 673.94,-743.91 685.75,-734.18 695.97,-725.6"/>
<polygon fill="black" stroke="black" points="698.4,-728.13 703.78,-719.01 693.88,-722.78 698.4,-728.13"/>
<text text-anchor="middle" x="693.5" y="-741.3" font-family="Helvetica,sans-Serif" font-size="14.00">http</text>
</g>
<!-- HSTART -->
<g id="node25" class="node">
<title>HSTART</title>
<polygon fill="none" stroke="black" points="605,-1048 605,-1069 842,-1069 842,-1048 605,-1048"/>
<text text-anchor="start" x="702" y="-1054.8" font-family="Times,serif" font-size="14.00">START</text>
<polygon fill="none" stroke="black" points="605,-1012 605,-1048 842,-1048 842,-1012 605,-1012"/>
<text text-anchor="start" x="674.5" y="-1033.8" font-family="Times,serif" font-size="14.00">Arguments: None</text>
<text text-anchor="start" x="608" y="-1018.8" font-family="Times,serif" font-size="14.00">Launched after PRESTART to begin jobs.</text>
<polygon fill="none" stroke="black" points="603.5,-1011.5 603.5,-1070.5 842.5,-1070.5 842.5,-1011.5 603.5,-1011.5"/>
</g>
<!-- HSTART&#45;&gt;Fhttp -->
<g id="edge45" class="edge">
<title>HSTART-&gt;Fhttp</title>
<path fill="none" stroke="black" d="M697.82,-1011.49C692.59,-1005.55 687.11,-999.33 682,-993.5 661.38,-969.99 637.94,-943.1 621.42,-924.12"/>
<polygon fill="black" stroke="black" points="623.99,-921.75 614.79,-916.5 618.71,-926.35 623.99,-921.75"/>
<text text-anchor="middle" x="695.5" y="-960.3" font-family="Helvetica,sans-Serif" font-size="14.00">start</text>
</g>
<!-- HSTART&#45;&gt;Ftimer -->
<g id="edge47" class="edge">
<title>HSTART-&gt;Ftimer</title>
<path fill="none" stroke="black" d="M842.95,-1035.76C1090.46,-1026.78 1636.17,-1005.65 1652,-993.5 1673.85,-976.73 1654.34,-956.44 1671,-934.5 1675.68,-928.34 1681.77,-922.93 1688.15,-918.32"/>
<polygon fill="black" stroke="black" points="1690.5,-920.96 1696.92,-912.53 1686.65,-915.12 1690.5,-920.96"/>
<text text-anchor="middle" x="1684.5" y="-960.3" font-family="Helvetica,sans-Serif" font-size="14.00">start</text>
</g>
<!-- HSTART&#45;&gt;Fstdin -->
<g id="edge46" class="edge">
<title>HSTART-&gt;Fstdin</title>
<path fill="none" stroke="black" d="M842.75,-1035.44C990.46,-1028.99 1232.73,-1015.46 1320,-993.5 1459.91,-958.29 1527.4,-975.57 1617,-862.5 1649.82,-821.08 1706.66,-441.69 1688,-392.25 1661.94,-323.21 1589.3,-270.68 1544.97,-243.89"/>
<polygon fill="black" stroke="black" points="1546.63,-240.8 1536.24,-238.72 1543.06,-246.82 1546.63,-240.8"/>
<text text-anchor="middle" x="1681.5" y="-654.3" font-family="Helvetica,sans-Serif" font-size="14.00">start</text>
</g>
<!-- HSTART&#45;&gt;Fhome -->
<g id="edge48" class="edge">
<title>HSTART-&gt;Fhome</title>
<path fill="none" stroke="black" d="M723,-1011.22C723,-947.01 723,-792.75 723,-729.87"/>
<polygon fill="black" stroke="black" points="726.5,-729.57 723,-719.57 719.5,-729.57 726.5,-729.57"/>
<text text-anchor="middle" x="736.5" y="-851.3" font-family="Helvetica,sans-Serif" font-size="14.00">start</text>
</g>
<!-- Hprint&#45;&gt;Frequest_time -->
<g id="edge51" class="edge">
<title>Hprint-&gt;Frequest_time</title>
<path fill="none" stroke="black" d="M500.54,-315.22C473.78,-309.97 444.85,-304.6 418,-300.25 355.64,-290.15 333.7,-310.11 277,-282.25 270.02,-278.82 258.46,-267.76 247.48,-256.19"/>
<polygon fill="black" stroke="black" points="249.78,-253.53 240.41,-248.59 244.66,-258.29 249.78,-253.53"/>
<text text-anchor="middle" x="309" y="-271.05" font-family="Helvetica,sans-Serif" font-size="14.00">stop_timer</text>
</g>
<!-- Hprint&#45;&gt;Fhome_repl -->
<g id="edge49" class="edge">
<title>Hprint-&gt;Fhome_repl</title>
<path fill="none" stroke="black" d="M595.7,-315.17C593.27,-300.7 592.54,-281.59 601,-267.25 610.05,-251.91 626.73,-241.64 642.35,-234.99"/>
<polygon fill="black" stroke="black" points="643.8,-238.18 651.86,-231.31 641.27,-231.66 643.8,-238.18"/>
<text text-anchor="middle" x="656" y="-271.05" font-family="Helvetica,sans-Serif" font-size="14.00">add_reload_home</text>
</g>
<!-- Hprint&#45;&gt;Fstdin -->
<g id="edge52" class="edge">
<title>Hprint-&gt;Fstdin</title>
<path fill="none" stroke="black" d="M736.45,-319.52C948.77,-293.31 1348.49,-243.95 1471.81,-228.72"/>
<polygon fill="black" stroke="black" points="1472.38,-232.17 1481.88,-227.47 1471.53,-225.23 1472.38,-232.17"/>
<text text-anchor="middle" x="1154" y="-271.05" font-family="Helvetica,sans-Serif" font-size="14.00">prints</text>
</g>
<!-- Hprint&#45;&gt;Ftranslations -->
<g id="edge50" class="edge">
<title>Hprint-&gt;Ftranslations</title>
<path fill="none" stroke="black" d="M557.7,-315.07C545.22,-306.67 533.07,-295.76 526,-282.25 521.1,-272.89 520.04,-261.47 520.5,-251.24"/>
<polygon fill="black" stroke="black" points="524,-251.42 521.43,-241.14 517.03,-250.78 524,-251.42"/>
<text text-anchor="middle" x="552" y="-271.05" font-family="Helvetica,sans-Serif" font-size="14.00">translate</text>
</g>
<!-- HAFTER_RELOAD -->
<g id="node27" class="node">
<title>HAFTER_RELOAD</title>
<polygon fill="none" stroke="black" points="1528,-1048 1528,-1069 1801,-1069 1801,-1048 1528,-1048"/>
<text text-anchor="start" x="1612" y="-1054.8" font-family="Times,serif" font-size="14.00">AFTER_RELOAD</text>
<polygon fill="none" stroke="black" points="1528,-1012 1528,-1048 1801,-1048 1801,-1012 1528,-1012"/>
<text text-anchor="start" x="1578" y="-1033.8" font-family="Times,serif" font-size="14.00">Arguments: state.functionnality</text>
<text text-anchor="start" x="1531" y="-1018.8" font-family="Times,serif" font-size="14.00">Event send just after reloading the functionnality</text>
<polygon fill="none" stroke="black" points="1526.5,-1011.5 1526.5,-1070.5 1801.5,-1070.5 1801.5,-1011.5 1526.5,-1011.5"/>
</g>
<!-- HAFTER_RELOAD&#45;&gt;Fhttp -->
<g id="edge53" class="edge">
<title>HAFTER_RELOAD-&gt;Fhttp</title>
<path fill="none" stroke="black" d="M1526.26,-1021.81C1280.32,-989.34 778.16,-923.03 637.41,-904.44"/>
<polygon fill="black" stroke="black" points="637.53,-900.93 627.16,-903.09 636.61,-907.87 637.53,-900.93"/>
<text text-anchor="middle" x="1302.5" y="-960.3" font-family="Helvetica,sans-Serif" font-size="14.00">start</text>
</g>
<!-- HAFTER_RELOAD&#45;&gt;Ftimer -->
<g id="edge55" class="edge">
<title>HAFTER_RELOAD-&gt;Ftimer</title>
<path fill="none" stroke="black" d="M1690.7,-1011.38C1694.96,-1005.75 1698.96,-999.67 1702,-993.5 1712.43,-972.31 1718.05,-945.97 1720.98,-926.57"/>
<polygon fill="black" stroke="black" points="1724.46,-926.96 1722.35,-916.58 1717.53,-926.01 1724.46,-926.96"/>
<text text-anchor="middle" x="1732.5" y="-960.3" font-family="Helvetica,sans-Serif" font-size="14.00">start</text>
</g>
<!-- HAFTER_RELOAD&#45;&gt;Fstdin -->
<g id="edge54" class="edge">
<title>HAFTER_RELOAD-&gt;Fstdin</title>
<path fill="none" stroke="black" d="M1722.25,-1011.37C1731.81,-1005.87 1741.39,-999.84 1750,-993.5 1849.94,-919.94 1937.79,-893 1918,-770.5 1880.02,-535.4 1939.68,-387.29 1734,-267.25 1674.76,-232.68 1593.23,-225.11 1546.32,-223.86"/>
<polygon fill="black" stroke="black" points="1546.36,-220.36 1536.3,-223.67 1546.23,-227.36 1546.36,-220.36"/>
<text text-anchor="middle" x="1918.5" y="-654.3" font-family="Helvetica,sans-Serif" font-size="14.00">start</text>
</g>
<!-- HAFTER_RELOAD&#45;&gt;Ftranslations -->
<g id="edge56" class="edge">
<title>HAFTER_RELOAD-&gt;Ftranslations</title>
<path fill="none" stroke="black" d="M1653.57,-1011.12C1651.61,-1005.32 1649.66,-999.24 1648,-993.5 1631.36,-936.03 1628.43,-921.23 1617,-862.5 1579.44,-669.52 1651.11,-593.86 1550,-425.25 1502.32,-345.74 1468.39,-336.35 1383,-300.25 1227.64,-234.58 739,-261 643,-249.25 620.31,-246.47 595.52,-241.5 574.54,-236.7"/>
<polygon fill="black" stroke="black" points="575.11,-233.24 564.58,-234.37 573.52,-240.06 575.11,-233.24"/>
<text text-anchor="middle" x="1626" y="-654.3" font-family="Helvetica,sans-Serif" font-size="14.00">reload</text>
</g>
<!-- Hget&#45;&gt;Frequest_time -->
<g id="edge58" class="edge">
<title>Hget-&gt;Frequest_time</title>
<path fill="none" stroke="black" d="M322.23,-1018.96C277.9,-996.49 220,-956.28 220,-899.5 220,-899.5 220,-899.5 220,-744 220,-684.66 142.57,-716.36 112,-665.5 72.69,-600.1 99.85,-570.88 88,-495.5 79.51,-441.47 71.68,-428.74 67,-374.25 64.18,-341.48 49.72,-328.23 67,-300.25 79.96,-279.27 140.76,-253.24 181.43,-237.7"/>
<polygon fill="black" stroke="black" points="182.67,-240.97 190.79,-234.17 180.2,-234.42 182.67,-240.97"/>
<text text-anchor="middle" x="144.5" y="-654.3" font-family="Helvetica,sans-Serif" font-size="14.00">start_timer</text>
</g>
<!-- Hget&#45;&gt;Fprofiler -->
<g id="edge57" class="edge">
<title>Hget-&gt;Fprofiler</title>
<path fill="none" stroke="black" d="M331.54,-1018.79C322.49,-1012 314.08,-1003.57 309,-993.5 298.52,-972.74 300.63,-945.99 304.56,-926.34"/>
<polygon fill="black" stroke="black" points="307.99,-927.03 306.8,-916.51 301.17,-925.48 307.99,-927.03"/>
<text text-anchor="middle" x="327.5" y="-960.3" font-family="Helvetica,sans-Serif" font-size="14.00">profile</text>
</g>
<!-- Hget&#45;&gt;Fhttp -->
<g id="edge59" class="edge">
<title>Hget-&gt;Fhttp</title>
<path fill="none" stroke="black" d="M441.2,-1032.45C473.66,-1026.16 511.4,-1014.63 540,-993.5 563.12,-976.42 579.61,-947.53 589.37,-926.27"/>
<polygon fill="black" stroke="black" points="592.71,-927.39 593.51,-916.83 586.29,-924.58 592.71,-927.39"/>
<text text-anchor="middle" x="594.5" y="-960.3" font-family="Helvetica,sans-Serif" font-size="14.00">get</text>
</g>
<!-- Hbuttons&#45;&gt;Frequest_time -->
<g id="edge61" class="edge">
<title>Hbuttons-&gt;Frequest_time</title>
<path fill="none" stroke="black" d="M225.33,-299.98C223.15,-294.17 221.25,-288.13 220,-282.25 218.44,-274.92 217.7,-266.95 217.44,-259.33"/>
<polygon fill="black" stroke="black" points="220.93,-259.22 217.34,-249.25 213.93,-259.29 220.93,-259.22"/>
<text text-anchor="middle" x="239" y="-271.05" font-family="Helvetica,sans-Serif" font-size="14.00">reload</text>
</g>
<!-- Hbuttons&#45;&gt;Freload -->
<g id="edge62" class="edge">
<title>Hbuttons-&gt;Freload</title>
<path fill="none" stroke="black" d="M173.47,-300.16C136.85,-281.15 93.46,-258.62 63.45,-243.05"/>
<polygon fill="black" stroke="black" points="64.7,-239.75 54.21,-238.25 61.47,-245.96 64.7,-239.75"/>
<text text-anchor="middle" x="154" y="-271.05" font-family="Helvetica,sans-Serif" font-size="14.00">reload</text>
</g>
<!-- Hbuttons&#45;&gt;Ftranslations -->
<g id="edge60" class="edge">
<title>Hbuttons-&gt;Ftranslations</title>
<path fill="none" stroke="black" d="M313.15,-300.19C323.91,-294.35 334.81,-288.25 345,-282.25 355.51,-276.06 356.87,-272.26 368,-267.25 402.54,-251.7 443.93,-240.62 475.55,-233.58"/>
<polygon fill="black" stroke="black" points="476.41,-236.97 485.45,-231.44 474.93,-230.13 476.41,-236.97"/>
<text text-anchor="middle" x="396" y="-271.05" font-family="Helvetica,sans-Serif" font-size="14.00">language</text>
</g>
<!-- Htimer&#45;&gt;Ftimer -->
<g id="edge64" class="edge">
<title>Htimer-&gt;Ftimer</title>
<path fill="none" stroke="black" d="M1748.66,-829.79C1742.27,-834.93 1736.48,-840.82 1732,-847.5 1727.51,-854.2 1725.21,-862.53 1724.11,-870.45"/>
<polygon fill="black" stroke="black" points="1720.62,-870.2 1723.27,-880.46 1727.59,-870.79 1720.62,-870.2"/>
<text text-anchor="middle" x="1747.5" y="-851.3" font-family="Helvetica,sans-Serif" font-size="14.00">timer</text>
</g>
<!-- Htimer&#45;&gt;Fstdin -->
<g id="edge63" class="edge">
<title>Htimer-&gt;Fstdin</title>
<path fill="none" stroke="black" d="M1780.66,-770.18C1766.44,-752.17 1752,-727.68 1752,-702.5 1752,-702.5 1752,-702.5 1752,-450.38 1752,-367.25 1772.7,-326.11 1714,-267.25 1690.87,-244.06 1598.83,-232.16 1546.28,-227.13"/>
<polygon fill="black" stroke="black" points="1546.3,-223.62 1536.02,-226.19 1545.66,-230.59 1546.3,-223.62"/>
<text text-anchor="middle" x="1767.5" y="-499.3" font-family="Helvetica,sans-Serif" font-size="14.00">timer</text>
</g>
<!-- Hstart_thread&#45;&gt;Fthread -->
<g id="edge65" class="edge">
<title>Hstart_thread-&gt;Fthread</title>
<path fill="none" stroke="black" d="M1086.55,-86.94C1128.81,-69.59 1181.04,-48.14 1215.38,-34.04"/>
<polygon fill="black" stroke="black" points="1217.08,-37.13 1225,-30.09 1214.42,-30.65 1217.08,-37.13"/>
<text text-anchor="middle" x="1176.5" y="-57.8" font-family="Helvetica,sans-Serif" font-size="14.00">start</text>
</g>
<!-- HBEFORE_DISABLE -->
<g id="node32" class="node">
<title>HBEFORE_DISABLE</title>
<polygon fill="none" stroke="black" points="1112,-123.5 1112,-144.5 1393,-144.5 1393,-123.5 1112,-123.5"/>
<text text-anchor="start" x="1194.5" y="-130.3" font-family="Times,serif" font-size="14.00">BEFORE_DISABLE</text>
<polygon fill="none" stroke="black" points="1112,-87.5 1112,-123.5 1393,-123.5 1393,-87.5 1112,-87.5"/>
<text text-anchor="start" x="1166" y="-109.3" font-family="Times,serif" font-size="14.00">Arguments: state.functionnality</text>
<text text-anchor="start" x="1115" y="-94.3" font-family="Times,serif" font-size="14.00">Event send just before disabling the functionnality</text>
<polygon fill="none" stroke="black" points="1110.5,-87 1110.5,-146 1393.5,-146 1393.5,-87 1110.5,-87"/>
</g>
<!-- HBEFORE_DISABLE&#45;&gt;Fthread -->
<g id="edge66" class="edge">
<title>HBEFORE_DISABLE-&gt;Fthread</title>
<path fill="none" stroke="black" d="M1252,-86.81C1252,-74.09 1252,-59.19 1252,-46.6"/>
<polygon fill="black" stroke="black" points="1255.5,-46.24 1252,-36.24 1248.5,-46.24 1255.5,-46.24"/>
<text text-anchor="middle" x="1288" y="-57.8" font-family="Helvetica,sans-Serif" font-size="14.00">stop_thread</text>
</g>
<!-- HBEFORE_RELOAD -->
<g id="node33" class="node">
<title>HBEFORE_RELOAD</title>
<polygon fill="none" stroke="black" points="1413,-123.5 1413,-144.5 1696,-144.5 1696,-123.5 1413,-123.5"/>
<text text-anchor="start" x="1497.5" y="-130.3" font-family="Times,serif" font-size="14.00">BEFORE_RELOAD</text>
<polygon fill="none" stroke="black" points="1413,-87.5 1413,-123.5 1696,-123.5 1696,-87.5 1413,-87.5"/>
<text text-anchor="start" x="1468" y="-109.3" font-family="Times,serif" font-size="14.00">Arguments: state.functionnality</text>
<text text-anchor="start" x="1416" y="-94.3" font-family="Times,serif" font-size="14.00">Event send just before reloading the functionnality</text>
<polygon fill="none" stroke="black" points="1411.5,-87 1411.5,-146 1696.5,-146 1696.5,-87 1411.5,-87"/>
</g>
<!-- HBEFORE_RELOAD&#45;&gt;Fthread -->
<g id="edge67" class="edge">
<title>HBEFORE_RELOAD-&gt;Fthread</title>
<path fill="none" stroke="black" d="M1464.62,-86.94C1405.88,-68.17 1332.13,-44.61 1288.73,-30.74"/>
<polygon fill="black" stroke="black" points="1289.75,-27.39 1279.16,-27.68 1287.62,-34.06 1289.75,-27.39"/>
<text text-anchor="middle" x="1439" y="-57.8" font-family="Helvetica,sans-Serif" font-size="14.00">stop_thread</text>
</g>
<!-- HPRESTART -->
<g id="node34" class="node">
<title>HPRESTART</title>
<polygon fill="none" stroke="black" points="13,-971 13,-992 204,-992 204,-971 13,-971"/>
<text text-anchor="start" x="74.5" y="-977.8" font-family="Times,serif" font-size="14.00">PRESTART</text>
<polygon fill="none" stroke="black" points="13,-935 13,-971 204,-971 204,-935 13,-935"/>
<text text-anchor="start" x="59.5" y="-956.8" font-family="Times,serif" font-size="14.00">Arguments: None</text>
<text text-anchor="start" x="16" y="-941.8" font-family="Times,serif" font-size="14.00">Launched first to initialize things.</text>
<polygon fill="none" stroke="black" points="11.5,-934.5 11.5,-993.5 204.5,-993.5 204.5,-934.5 11.5,-934.5"/>
</g>
<!-- HPRESTART&#45;&gt;Ftranslations -->
<g id="edge68" class="edge">
<title>HPRESTART-&gt;Ftranslations</title>
<path fill="none" stroke="black" d="M113.84,-934.38C134.74,-834.33 208.55,-502.15 282,-425.25 326.59,-378.57 369.56,-416.93 418,-374.25 445.89,-349.67 435.79,-330.78 457,-300.25 469.79,-281.83 486.56,-263.02 500.24,-248.7"/>
<polygon fill="black" stroke="black" points="503.03,-250.86 507.48,-241.24 498,-245.98 503.03,-250.86"/>
<text text-anchor="middle" x="198.5" y="-654.3" font-family="Helvetica,sans-Serif" font-size="14.00">start</text>
</g>
<!-- Fmain -->
<g id="node35" class="node">
<title>Fmain</title>
<path fill="none" stroke="blue" d="M242,-1154.23C242,-1156.03 229.9,-1157.5 215,-1157.5 200.1,-1157.5 188,-1156.03 188,-1154.23 188,-1154.23 188,-1124.77 188,-1124.77 188,-1122.97 200.1,-1121.5 215,-1121.5 229.9,-1121.5 242,-1122.97 242,-1124.77 242,-1124.77 242,-1154.23 242,-1154.23"/>
<path fill="none" stroke="blue" d="M242,-1154.23C242,-1152.42 229.9,-1150.95 215,-1150.95 200.1,-1150.95 188,-1152.42 188,-1154.23"/>
<text text-anchor="middle" x="215" y="-1135.8" font-family="Times,serif" font-size="14.00">main</text>
</g>
<!-- Fmain&#45;&gt;HSTART -->
<g id="edge3" class="edge">
<title>Fmain-&gt;HSTART</title>
<path fill="none" stroke="blue" stroke-width="3" d="M242.31,-1133.31C307.31,-1120.96 474.62,-1089.18 593.54,-1066.59"/>
<polygon fill="blue" stroke="blue" stroke-width="3" points="594.28,-1070.01 603.45,-1064.71 592.97,-1063.14 594.28,-1070.01"/>
<text text-anchor="middle" x="473" y="-1092.3" font-family="Helvetica,sans-Serif" font-size="14.00">5</text>
</g>
<!-- Fmain&#45;&gt;HPRESTART -->
<g id="edge1" class="edge">
<title>Fmain-&gt;HPRESTART</title>
<path fill="none" stroke="blue" stroke-width="3" d="M204.35,-1121.23C187.39,-1093.73 153.86,-1039.36 131.18,-1002.58"/>
<polygon fill="blue" stroke="blue" stroke-width="3" points="133.89,-1000.31 125.66,-993.64 127.93,-1003.99 133.89,-1000.31"/>
<text text-anchor="middle" x="196" y="-1092.3" font-family="Helvetica,sans-Serif" font-size="14.00">2</text>
</g>
</g>
</svg>